<svg xmlns="http://www.w3.org/2000/svg" fill="none" viewBox="0 0 137 68">
  <path fill="#fff" d="M42.42 51.28c-1.28-3.55-3.9-5.32-7.88-5.32h-1.26v21.89h1.26c3.07 0 5.34-1.22 6.8-3.64 1.24-2.07 1.86-4.7 1.86-7.9 0-1.9-.27-3.57-.78-5.03Zm-21.54.26c1.28 3.55 3.9 5.33 7.88 5.33h1.26V34.98h-1.26c-3.07 0-5.34 1.21-6.8 3.64-1.23 2.06-1.85 4.7-1.85 7.9 0 1.89.26 3.57.77 5.02ZM0 .03h16.7v5.8H6v2.9h8.89v5.5h-8.9v2.92h10.7v5.8H0V.03ZM25.1 0h21.6L35.9 23.42 25.1 0Zm10.8 20.52 8.92-19.3H27.01l8.89 19.3ZM55.33.03h16.7v5.8h-10.7v2.9h8.89v5.5h-8.9v2.92h10.7v5.8h-16.7V.03ZM82.3 22.92V0h1.29l16 15.58V0h1.22v22.92h-18.5Zm36 .03V5.82h-8.66V.02h18.5v5.8h-8.65v17.13h-1.19ZM9.85 39.55c1.45 0 2.6.22 3.45.66a5.75 5.75 0 0 1 3.23 5.27 5.5 5.5 0 0 1-.85 2.98 6.08 6.08 0 0 1-2.34 2.15 6.5 6.5 0 0 1 3 2.18 5.5 5.5 0 0 1 1.21 3.49 6 6 0 0 1-.87 3.14 6.35 6.35 0 0 1-2.32 2.26c-.5.27-1.05.47-1.62.6-.59.13-1.38.2-2.37.2H.23V39.54h9.62ZM48.46 60.8c-1.72-1.5-2.57-3.75-2.55-6.76h5.37c-.02 1.25.35 2.2 1.12 2.87a4.8 4.8 0 0 0 3.23.98 5.5 5.5 0 0 0 2.7-.56c.65-.37.98-.94.98-1.7 0-.65-.33-1.1-1-1.4a9.41 9.41 0 0 0-2-.6l-1.21-.22c-1.5-.28-2.96-.68-4.38-1.2a7.64 7.64 0 0 1-3.1-2.15 5.64 5.64 0 0 1-1.25-3.82c0-1.58.42-2.93 1.25-4.03a7.53 7.53 0 0 1 3.35-2.5c1.45-.55 3-.83 4.56-.81 2 0 3.72.37 5.18 1.12a8.07 8.07 0 0 1 3.45 3.39c.38.64.64 1.35.75 2.09.09.65.13 1.3.13 1.96h-5.36c0-1.19-.32-2.06-.96-2.62-.64-.56-1.62-.84-2.96-.84a4.7 4.7 0 0 0-2.5.56c-.6.37-.9.88-.9 1.52 0 .7.4 1.21 1.19 1.54.97.39 1.97.68 3 .9 1.97.39 3.52.77 4.62 1.13a6.48 6.48 0 0 1 2.89 1.93c.8.92 1.22 2.21 1.22 3.88a6.5 6.5 0 0 1-1.32 4.09 8.37 8.37 0 0 1-3.48 2.61 11.8 11.8 0 0 1-4.66.91c-3.18 0-5.63-.76-7.36-2.26Zm30.32 1.67V45.35h-8.66v-5.8h18.5v5.8h-8.66v17.12h-1.18Zm16.07-22.92h16.7v5.8h-10.7v2.9h8.89v5.5h-8.9v2.92h10.7v5.8H94.86V39.55Zm41.43 22.92h-17.62V39.55h8.93c1.9 0 3.47.34 4.67 1.02a7.12 7.12 0 0 1 2.77 2.7 7.5 7.5 0 0 1 .99 3.79 7.26 7.26 0 0 1-1.58 4.6 7.44 7.44 0 0 1-3.99 2.68l5.83 8.13Zm-16.4-20.91v11.82h8.46l-8.46-11.82Zm0 19.7h14.1l-4.81-6.7-1.02.04h-8.27v6.65Zm.86-20.5 8.95 12.52a6.3 6.3 0 0 0 3.66-2.2 6.11 6.11 0 0 0 1.45-4.02 6.3 6.3 0 0 0-.9-3.3 5.84 5.84 0 0 0-2.5-2.27 8.5 8.5 0 0 0-3.78-.72h-6.88Z"/>
</svg>
