<svg xmlns="http://www.w3.org/2000/svg" fill="currentColor" viewBox="0 0 24 16">
  <path d="M2.66668 0L0 0L0 16H2.66668L2.66668 0Z" fill="currentColor" />
  <path d="M9.3737 0L6.70703 0L6.70703 16H9.3737L9.3737 0Z" fill="currentColor" />
  <path d="M13.4142 0L10.7476 0L10.7476 16H13.4142L13.4142 0Z" fill="currentColor" />
  <path d="M24.0001 0L20.0405 0L20.0405 16H24.0001L24.0001 0Z" fill="currentColor" />
  <path d="M5.33334 0L4.04041 0L4.04041 16H5.33334L5.33334 0Z" fill="currentColor" />
  <path d="M16 0L14.707 0L14.707 16H16L16 0Z" fill="currentColor" />
  <path d="M18.6666 0L17.3737 0L17.3737 16H18.6666L18.6666 0Z" fill="currentColor" />
</svg>